<mxfile host="app.diagrams.net" modified="2023-03-16T06:04:45.715Z" agent="5.0 (Windows NT 10.0; Win64; x64) AppleWebKit/537.36 (KHTML, like Gecko) Chrome/111.0.0.0 Safari/537.36 Edg/111.0.1661.41" version="20.6.0" etag="qy_IPtIRsUYsfFL_xAac" type="github">
  <diagram id="oIKOVtowKGN7X6jCK-J3" name="第 1 页">
    <mxGraphModel dx="816" dy="477" grid="1" gridSize="10" guides="1" tooltips="1" connect="1" arrows="1" fold="1" page="1" pageScale="1" pageWidth="827" pageHeight="1169" math="0" shadow="0">
      <root>
        <mxCell id="0" />
        <mxCell id="1" parent="0" />
        <mxCell id="w2IzHoRej45B00TB_UzI-1" value="article" style="swimlane;fontStyle=0;childLayout=stackLayout;horizontal=1;startSize=26;horizontalStack=0;resizeParent=1;resizeParentMax=0;resizeLast=0;collapsible=1;marginBottom=0;align=center;fontSize=14;" vertex="1" parent="1">
          <mxGeometry x="320" y="170" width="160" height="266" as="geometry">
            <mxRectangle x="200" y="210" width="80" height="30" as="alternateBounds" />
          </mxGeometry>
        </mxCell>
        <mxCell id="w2IzHoRej45B00TB_UzI-2" value="aid    (PK)" style="text;strokeColor=none;fillColor=none;spacingLeft=4;spacingRight=4;overflow=hidden;rotatable=0;points=[[0,0.5],[1,0.5]];portConstraint=eastwest;fontSize=12;" vertex="1" parent="w2IzHoRej45B00TB_UzI-1">
          <mxGeometry y="26" width="160" height="30" as="geometry" />
        </mxCell>
        <mxCell id="w2IzHoRej45B00TB_UzI-3" value="uid    (FK)" style="text;strokeColor=none;fillColor=none;spacingLeft=4;spacingRight=4;overflow=hidden;rotatable=0;points=[[0,0.5],[1,0.5]];portConstraint=eastwest;fontSize=12;" vertex="1" parent="w2IzHoRej45B00TB_UzI-1">
          <mxGeometry y="56" width="160" height="30" as="geometry" />
        </mxCell>
        <mxCell id="w2IzHoRej45B00TB_UzI-10" value="aname    段落标题" style="text;strokeColor=none;fillColor=none;spacingLeft=4;spacingRight=4;overflow=hidden;rotatable=0;points=[[0,0.5],[1,0.5]];portConstraint=eastwest;fontSize=12;" vertex="1" parent="w2IzHoRej45B00TB_UzI-1">
          <mxGeometry y="86" width="160" height="30" as="geometry" />
        </mxCell>
        <mxCell id="w2IzHoRej45B00TB_UzI-23" value="acontent    段落内容" style="text;strokeColor=none;fillColor=none;spacingLeft=4;spacingRight=4;overflow=hidden;rotatable=0;points=[[0,0.5],[1,0.5]];portConstraint=eastwest;fontSize=12;rounded=0;fontFamily=Helvetica;fontColor=#000000;" vertex="1" parent="w2IzHoRej45B00TB_UzI-1">
          <mxGeometry y="116" width="160" height="30" as="geometry" />
        </mxCell>
        <mxCell id="w2IzHoRej45B00TB_UzI-4" value="lastaid    衔接的下一段文字" style="text;strokeColor=none;fillColor=none;spacingLeft=4;spacingRight=4;overflow=hidden;rotatable=0;points=[[0,0.5],[1,0.5]];portConstraint=eastwest;fontSize=12;" vertex="1" parent="w2IzHoRej45B00TB_UzI-1">
          <mxGeometry y="146" width="160" height="30" as="geometry" />
        </mxCell>
        <mxCell id="w2IzHoRej45B00TB_UzI-5" value="start    标志是否为首位" style="text;strokeColor=none;fillColor=none;spacingLeft=4;spacingRight=4;overflow=hidden;rotatable=0;points=[[0,0.5],[1,0.5]];portConstraint=eastwest;fontSize=12;" vertex="1" parent="w2IzHoRej45B00TB_UzI-1">
          <mxGeometry y="176" width="160" height="30" as="geometry" />
        </mxCell>
        <mxCell id="w2IzHoRej45B00TB_UzI-6" value="firstaid    文章首段" style="text;strokeColor=none;fillColor=none;spacingLeft=4;spacingRight=4;overflow=hidden;rotatable=0;points=[[0,0.5],[1,0.5]];portConstraint=eastwest;fontSize=12;" vertex="1" parent="w2IzHoRej45B00TB_UzI-1">
          <mxGeometry y="206" width="160" height="30" as="geometry" />
        </mxCell>
        <mxCell id="w2IzHoRej45B00TB_UzI-18" value="like    点赞量" style="text;strokeColor=none;fillColor=none;spacingLeft=4;spacingRight=4;overflow=hidden;rotatable=0;points=[[0,0.5],[1,0.5]];portConstraint=eastwest;fontSize=12;rounded=1;fontFamily=Helvetica;fontColor=#000000;" vertex="1" parent="w2IzHoRej45B00TB_UzI-1">
          <mxGeometry y="236" width="160" height="30" as="geometry" />
        </mxCell>
        <mxCell id="w2IzHoRej45B00TB_UzI-7" value="" style="rounded=0;whiteSpace=wrap;html=1;" vertex="1" parent="1">
          <mxGeometry x="520" y="130" width="210" height="340" as="geometry" />
        </mxCell>
        <mxCell id="w2IzHoRej45B00TB_UzI-9" value="" style="endArrow=none;html=1;rounded=0;" edge="1" parent="1">
          <mxGeometry width="50" height="50" relative="1" as="geometry">
            <mxPoint x="520" y="176" as="sourcePoint" />
            <mxPoint x="730" y="176" as="targetPoint" />
            <Array as="points">
              <mxPoint x="730" y="176" />
            </Array>
          </mxGeometry>
        </mxCell>
        <mxCell id="w2IzHoRej45B00TB_UzI-11" value="段落标题" style="text;html=1;strokeColor=none;fillColor=none;align=center;verticalAlign=middle;whiteSpace=wrap;rounded=0;fontSize=15;" vertex="1" parent="1">
          <mxGeometry x="592.5" y="140" width="65" height="30" as="geometry" />
        </mxCell>
        <mxCell id="w2IzHoRej45B00TB_UzI-12" value="&lt;font face=&quot;Times New Roman&quot; style=&quot;font-size: 10px;&quot;&gt;点击回到首段&lt;/font&gt;" style="text;html=1;strokeColor=#6c8ebf;fillColor=#dae8fc;align=center;verticalAlign=middle;whiteSpace=wrap;rounded=1;fontSize=8;" vertex="1" parent="1">
          <mxGeometry x="650" y="160" width="80" height="20" as="geometry" />
        </mxCell>
        <mxCell id="w2IzHoRej45B00TB_UzI-13" value="一&lt;br style=&quot;font-size: 19px;&quot;&gt;些&lt;br style=&quot;font-size: 19px;&quot;&gt;正&lt;br style=&quot;font-size: 19px;&quot;&gt;文&lt;br&gt;&lt;font color=&quot;#99ccff&quot; style=&quot;font-size: 13px;&quot;&gt;（左右滑动切换不同故事走向；上下滑动切换上下文）&lt;/font&gt;" style="text;html=1;strokeColor=none;fillColor=none;align=center;verticalAlign=middle;whiteSpace=wrap;rounded=0;fontFamily=Times New Roman;fontSize=19;" vertex="1" parent="1">
          <mxGeometry x="530" y="210" width="190" height="190" as="geometry" />
        </mxCell>
        <mxCell id="w2IzHoRej45B00TB_UzI-14" value="添加" style="text;html=1;strokeColor=#6c8ebf;fillColor=#dae8fc;align=center;verticalAlign=middle;whiteSpace=wrap;rounded=1;fontFamily=Times New Roman;fontSize=12;" vertex="1" parent="1">
          <mxGeometry x="520" y="440" width="60" height="30" as="geometry" />
        </mxCell>
        <mxCell id="w2IzHoRej45B00TB_UzI-15" value="评论" style="text;html=1;strokeColor=#6c8ebf;fillColor=#dae8fc;align=center;verticalAlign=middle;whiteSpace=wrap;rounded=1;fontFamily=Times New Roman;fontSize=12;" vertex="1" parent="1">
          <mxGeometry x="592.5" y="440" width="60" height="30" as="geometry" />
        </mxCell>
        <mxCell id="w2IzHoRej45B00TB_UzI-16" value="&lt;font style=&quot;font-size: 12px;&quot;&gt;点赞&lt;/font&gt;" style="text;html=1;strokeColor=#6c8ebf;fillColor=#dae8fc;align=center;verticalAlign=middle;whiteSpace=wrap;rounded=1;fontFamily=Times New Roman;fontSize=19;" vertex="1" parent="1">
          <mxGeometry x="670" y="440" width="60" height="30" as="geometry" />
        </mxCell>
        <mxCell id="w2IzHoRej45B00TB_UzI-19" value="comment" style="swimlane;fontStyle=0;childLayout=stackLayout;horizontal=1;startSize=26;horizontalStack=0;resizeParent=1;resizeParentMax=0;resizeLast=0;collapsible=1;marginBottom=0;align=center;fontSize=14;rounded=0;fontFamily=Helvetica;fontColor=#000000;" vertex="1" parent="1">
          <mxGeometry x="100" y="206" width="160" height="146" as="geometry" />
        </mxCell>
        <mxCell id="w2IzHoRej45B00TB_UzI-20" value="cid    (PK)" style="text;strokeColor=none;fillColor=none;spacingLeft=4;spacingRight=4;overflow=hidden;rotatable=0;points=[[0,0.5],[1,0.5]];portConstraint=eastwest;fontSize=12;rounded=1;fontFamily=Helvetica;fontColor=#000000;" vertex="1" parent="w2IzHoRej45B00TB_UzI-19">
          <mxGeometry y="26" width="160" height="30" as="geometry" />
        </mxCell>
        <mxCell id="w2IzHoRej45B00TB_UzI-21" value="uid    (FK)" style="text;strokeColor=none;fillColor=none;spacingLeft=4;spacingRight=4;overflow=hidden;rotatable=0;points=[[0,0.5],[1,0.5]];portConstraint=eastwest;fontSize=12;rounded=1;fontFamily=Helvetica;fontColor=#000000;" vertex="1" parent="w2IzHoRej45B00TB_UzI-19">
          <mxGeometry y="56" width="160" height="30" as="geometry" />
        </mxCell>
        <mxCell id="w2IzHoRej45B00TB_UzI-22" value="aid    (FK)" style="text;strokeColor=none;fillColor=none;spacingLeft=4;spacingRight=4;overflow=hidden;rotatable=0;points=[[0,0.5],[1,0.5]];portConstraint=eastwest;fontSize=12;rounded=1;fontFamily=Helvetica;fontColor=#000000;" vertex="1" parent="w2IzHoRej45B00TB_UzI-19">
          <mxGeometry y="86" width="160" height="30" as="geometry" />
        </mxCell>
        <mxCell id="w2IzHoRej45B00TB_UzI-24" value="ccontent" style="text;strokeColor=none;fillColor=none;spacingLeft=4;spacingRight=4;overflow=hidden;rotatable=0;points=[[0,0.5],[1,0.5]];portConstraint=eastwest;fontSize=12;rounded=0;fontFamily=Helvetica;fontColor=#000000;" vertex="1" parent="w2IzHoRej45B00TB_UzI-19">
          <mxGeometry y="116" width="160" height="30" as="geometry" />
        </mxCell>
      </root>
    </mxGraphModel>
  </diagram>
</mxfile>
